<svg width="397" height="79" viewBox="0 0 397 79" fill="none" xmlns="http://www.w3.org/2000/svg">
<path d="M83.208 17.864C80.328 17.864 77.96 17.032 76.104 15.368C74.312 13.64 73.416 11.528 73.416 9.03199C73.416 6.47199 74.312 4.35999 76.104 2.69599C77.96 0.967989 80.328 0.103989 83.208 0.103989C86.024 0.103989 88.328 0.967989 90.12 2.69599C91.976 4.35999 92.904 6.47199 92.904 9.03199C92.904 11.528 91.976 13.64 90.12 15.368C88.328 17.032 86.024 17.864 83.208 17.864ZM91.368 23.432V77H74.952V23.432H91.368Z" fill="white"/>
<path d="M125.056 77.768C120.384 77.768 116.224 76.968 112.576 75.368C108.928 73.768 106.049 71.592 103.937 68.84C101.825 66.024 100.641 62.888 100.385 59.432H116.609C116.801 61.288 117.665 62.792 119.201 63.944C120.736 65.096 122.625 65.672 124.865 65.672C126.913 65.672 128.481 65.288 129.569 64.52C130.721 63.688 131.297 62.632 131.297 61.352C131.297 59.816 130.497 58.696 128.897 57.992C127.297 57.224 124.705 56.392 121.121 55.496C117.281 54.6 114.081 53.672 111.521 52.712C108.961 51.688 106.752 50.12 104.896 48.008C103.04 45.832 102.112 42.92 102.112 39.272C102.112 36.2 102.945 33.416 104.609 30.92C106.337 28.36 108.832 26.344 112.097 24.872C115.425 23.4 119.361 22.664 123.905 22.664C130.625 22.664 135.905 24.328 139.745 27.656C143.649 30.984 145.889 35.4 146.465 40.904H131.297C131.041 39.048 130.208 37.576 128.8 36.488C127.456 35.4 125.664 34.856 123.424 34.856C121.504 34.856 120.032 35.24 119.008 36.008C117.984 36.712 117.472 37.704 117.472 38.984C117.472 40.52 118.273 41.672 119.873 42.44C121.537 43.208 124.097 43.976 127.553 44.744C131.521 45.768 134.753 46.792 137.249 47.816C139.745 48.776 141.921 50.376 143.777 52.616C145.697 54.792 146.688 57.736 146.753 61.448C146.753 64.584 145.857 67.4 144.064 69.896C142.336 72.328 139.808 74.248 136.48 75.656C133.216 77.064 129.409 77.768 125.056 77.768Z" fill="white"/>
<path d="M186.652 63.08V77H178.3C172.348 77 167.708 75.56 164.38 72.68C161.052 69.736 159.388 64.968 159.388 58.376V37.064H152.86V23.432H159.388V10.376H175.804V23.432H186.556V37.064H175.804V58.568C175.804 60.168 176.188 61.32 176.956 62.024C177.724 62.728 179.004 63.08 180.796 63.08H186.652Z" fill="white"/>
<path d="M222.676 37.064H213.844V77H197.428V37.064H191.476V23.432H197.428V21.896C197.428 15.304 199.316 10.312 203.092 6.91999C206.868 3.46399 212.404 1.73599 219.7 1.73599C220.916 1.73599 221.812 1.76799 222.388 1.83199V15.752C219.252 15.56 217.044 16.008 215.764 17.096C214.484 18.184 213.844 20.136 213.844 22.952V23.432H222.676V37.064Z" fill="white"/>
<path d="M246.805 5.95999V77H230.389V5.95999H246.805Z" fill="white"/>
<path d="M283.086 77.768C277.838 77.768 273.102 76.648 268.878 74.408C264.718 72.168 261.422 68.968 258.99 64.808C256.622 60.648 255.438 55.784 255.438 50.216C255.438 44.712 256.654 39.88 259.086 35.72C261.518 31.496 264.846 28.264 269.07 26.024C273.294 23.784 278.03 22.664 283.278 22.664C288.526 22.664 293.262 23.784 297.486 26.024C301.71 28.264 305.038 31.496 307.47 35.72C309.902 39.88 311.118 44.712 311.118 50.216C311.118 55.72 309.87 60.584 307.374 64.808C304.942 68.968 301.582 72.168 297.294 74.408C293.07 76.648 288.334 77.768 283.086 77.768ZM283.086 63.56C286.222 63.56 288.878 62.408 291.054 60.104C293.294 57.8 294.414 54.504 294.414 50.216C294.414 45.928 293.326 42.632 291.15 40.328C289.038 38.024 286.414 36.872 283.278 36.872C280.078 36.872 277.422 38.024 275.31 40.328C273.198 42.568 272.142 45.864 272.142 50.216C272.142 54.504 273.166 57.8 275.214 60.104C277.326 62.408 279.95 63.56 283.086 63.56Z" fill="white"/>
<path d="M396.723 23.432L382.227 77H364.083L355.635 42.248L346.899 77H328.851L314.259 23.432H330.675L338.259 61.736L347.283 23.432H364.659L373.779 61.544L381.267 23.432H396.723Z" fill="white"/>
<path d="M25 10H64C65.6569 10 67 11.3431 67 13V23H25V10Z" fill="white"/>
<path d="M64 10C65.6569 10 67 11.3431 67 13V52H54V10H64Z" fill="white"/>
<path fill-rule="evenodd" clip-rule="evenodd" d="M0.395704 51.3009C0.384913 51.6804 0.382303 52.0618 0.388041 52.4451C0.602351 66.7577 12.3788 78.1867 26.6914 77.9724C41.004 77.7581 52.433 65.9817 52.2187 51.669C52.0044 37.3564 40.228 25.9274 25.9153 26.1417C25.8559 26.1426 25.7965 26.1437 25.7372 26.145L25.9007 37.0671C25.9767 37.0648 26.0527 37.0631 26.129 37.062C34.5505 36.9359 41.4798 43.6607 41.6059 52.0822C41.732 60.5038 35.0072 67.4331 26.5856 67.5592C18.164 67.6853 11.2348 60.9605 11.1087 52.5389C11.1031 52.1628 11.1111 51.7897 11.1323 51.4201L0.395704 51.3009Z" fill="white"/>
</svg>
